<svg id="visual" viewBox="0 0 1440 500" width="1440" height="500" xmlns="http://www.w3.org/2000/svg" xmlns:xlink="http://www.w3.org/1999/xlink" version="1.1"><rect x="0" y="0" width="1440" height="500" fill="#0b0d14"></rect><defs><linearGradient id="grad1_0" x1="65.3%" y1="0%" x2="100%" y2="100%"><stop offset="-7.600000000000001%" stop-color="#5d70f6" stop-opacity="1"></stop><stop offset="107.6%" stop-color="#5d70f6" stop-opacity="1"></stop></linearGradient></defs><defs><linearGradient id="grad1_1" x1="65.3%" y1="0%" x2="100%" y2="100%"><stop offset="-7.600000000000001%" stop-color="#5d70f6" stop-opacity="1"></stop><stop offset="107.6%" stop-color="#3350a5" stop-opacity="1"></stop></linearGradient></defs><defs><linearGradient id="grad1_2" x1="65.3%" y1="0%" x2="100%" y2="100%"><stop offset="-7.600000000000001%" stop-color="#1d2f58" stop-opacity="1"></stop><stop offset="107.6%" stop-color="#3350a5" stop-opacity="1"></stop></linearGradient></defs><defs><linearGradient id="grad1_3" x1="65.3%" y1="0%" x2="100%" y2="100%"><stop offset="-7.600000000000001%" stop-color="#1d2f58" stop-opacity="1"></stop><stop offset="107.6%" stop-color="#0b0d14" stop-opacity="1"></stop></linearGradient></defs><defs><linearGradient id="grad2_0" x1="0%" y1="0%" x2="34.7%" y2="100%"><stop offset="-7.600000000000001%" stop-color="#5d70f6" stop-opacity="1"></stop><stop offset="107.6%" stop-color="#5d70f6" stop-opacity="1"></stop></linearGradient></defs><defs><linearGradient id="grad2_1" x1="0%" y1="0%" x2="34.7%" y2="100%"><stop offset="-7.600000000000001%" stop-color="#3350a5" stop-opacity="1"></stop><stop offset="107.6%" stop-color="#5d70f6" stop-opacity="1"></stop></linearGradient></defs><defs><linearGradient id="grad2_2" x1="0%" y1="0%" x2="34.7%" y2="100%"><stop offset="-7.600000000000001%" stop-color="#3350a5" stop-opacity="1"></stop><stop offset="107.6%" stop-color="#1d2f58" stop-opacity="1"></stop></linearGradient></defs><defs><linearGradient id="grad2_3" x1="0%" y1="0%" x2="34.7%" y2="100%"><stop offset="-7.600000000000001%" stop-color="#0b0d14" stop-opacity="1"></stop><stop offset="107.6%" stop-color="#1d2f58" stop-opacity="1"></stop></linearGradient></defs><g transform="translate(1440, 0)"><path d="M0 500C-45.1 470.9 -90.3 441.7 -139.7 429.9C-189.1 418.1 -242.8 423.6 -293.9 404.5C-345 385.5 -393.4 341.9 -395.6 287.4C-397.8 233 -353.6 167.8 -363.3 118C-373 68.3 -436.5 34.2 -500 0L0 0Z" fill="#161f35"></path><path d="M0 375C-33.8 353.1 -67.7 331.3 -104.8 322.4C-141.8 313.5 -182.1 317.7 -220.4 303.4C-258.7 289.1 -295.1 256.4 -296.7 215.6C-298.3 174.8 -265.2 125.8 -272.5 88.5C-279.7 51.3 -327.4 25.6 -375 0L0 0Z" fill="#263f7e"></path><path d="M0 250C-22.6 235.4 -45.1 220.9 -69.8 214.9C-94.5 209 -121.4 211.8 -146.9 202.3C-172.5 192.7 -196.7 170.9 -197.8 143.7C-198.9 116.5 -176.8 83.9 -181.7 59C-186.5 34.2 -218.2 17.1 -250 0L0 0Z" fill="#4660cd"></path><path d="M0 125C-11.3 117.7 -22.6 110.4 -34.9 107.5C-47.3 104.5 -60.7 105.9 -73.5 101.1C-86.2 96.4 -98.4 85.5 -98.9 71.9C-99.4 58.3 -88.4 41.9 -90.8 29.5C-93.2 17.1 -109.1 8.5 -125 0L0 0Z" fill="#5d70f6"></path></g><g transform="translate(0, 500)"><path d="M0 -500C37 -453.5 74 -406.9 130.4 -401.3C186.8 -395.8 262.7 -431.1 293.9 -404.5C325 -377.9 311.4 -289.4 326.8 -237.5C342.3 -185.5 386.7 -170.1 420.4 -136.6C454.1 -103.1 477 -51.5 500 0L0 0Z" fill="#161f35"></path><path d="M0 -375C27.7 -340.1 55.5 -305.2 97.8 -301C140.1 -296.8 197.1 -323.3 220.4 -303.4C243.8 -283.4 233.6 -217.1 245.1 -178.1C256.7 -139.1 290 -127.6 315.3 -102.4C340.5 -77.3 357.8 -38.7 375 0L0 0Z" fill="#263f7e"></path><path d="M0 -250C18.5 -226.7 37 -203.5 65.2 -200.7C93.4 -197.9 131.4 -215.5 146.9 -202.3C162.5 -189 155.7 -144.7 163.4 -118.7C171.1 -92.8 193.3 -85 210.2 -68.3C227 -51.5 238.5 -25.8 250 0L0 0Z" fill="#4660cd"></path><path d="M0 -125C9.2 -113.4 18.5 -101.7 32.6 -100.3C46.7 -98.9 65.7 -107.8 73.5 -101.1C81.3 -94.5 77.9 -72.4 81.7 -59.4C85.6 -46.4 96.7 -42.5 105.1 -34.1C113.5 -25.8 119.3 -12.9 125 0L0 0Z" fill="#5d70f6"></path></g></svg>