<svg id="visual" viewBox="0 0 2000 400" width="2000" height="400" xmlns="http://www.w3.org/2000/svg" xmlns:xlink="http://www.w3.org/1999/xlink" version="1.1"><rect x="0" y="0" width="2000" height="400" fill="#11150b"></rect><path d="M727 400L762 400L762 383L661 383L661 365L721 365L721 348L830 348L830 330L597 330L597 313L511 313L511 296L457 296L457 278L471 278L471 261L420 261L420 243L665 243L665 226L461 226L461 209L545 209L545 191L804 191L804 174L577 174L577 157L619 157L619 139L596 139L596 122L710 122L710 104L794 104L794 87L277 87L277 70L566 70L566 52L554 52L554 35L286 35L286 17L412 17L412 0L2000 0L2000 17L2000 17L2000 35L2000 35L2000 52L2000 52L2000 70L2000 70L2000 87L2000 87L2000 104L2000 104L2000 122L2000 122L2000 139L2000 139L2000 157L2000 157L2000 174L2000 174L2000 191L2000 191L2000 209L2000 209L2000 226L2000 226L2000 243L2000 243L2000 261L2000 261L2000 278L2000 278L2000 296L2000 296L2000 313L2000 313L2000 330L2000 330L2000 348L2000 348L2000 365L2000 365L2000 383L2000 383L2000 400L2000 400Z" fill="#11150b"></path><path d="M556 400L386 400L386 383L599 383L599 365L703 365L703 348L675 348L675 330L405 330L405 313L720 313L720 296L809 296L809 278L797 278L797 261L617 261L617 243L618 243L618 226L472 226L472 209L688 209L688 191L636 191L636 174L393 174L393 157L455 157L455 139L378 139L378 122L871 122L871 104L860 104L860 87L762 87L762 70L608 70L608 52L424 52L424 35L701 35L701 17L980 17L980 0L2000 0L2000 17L2000 17L2000 35L2000 35L2000 52L2000 52L2000 70L2000 70L2000 87L2000 87L2000 104L2000 104L2000 122L2000 122L2000 139L2000 139L2000 157L2000 157L2000 174L2000 174L2000 191L2000 191L2000 209L2000 209L2000 226L2000 226L2000 243L2000 243L2000 261L2000 261L2000 278L2000 278L2000 296L2000 296L2000 313L2000 313L2000 330L2000 330L2000 348L2000 348L2000 365L2000 365L2000 383L2000 383L2000 400L2000 400Z" fill="#1b1f16"></path><path d="M657 400L855 400L855 383L936 383L936 365L763 365L763 348L547 348L547 330L940 330L940 313L543 313L543 296L915 296L915 278L880 278L880 261L1062 261L1062 243L778 243L778 226L987 226L987 209L747 209L747 191L917 191L917 174L617 174L617 157L675 157L675 139L661 139L661 122L639 122L639 104L657 104L657 87L537 87L537 70L921 70L921 52L1027 52L1027 35L605 35L605 17L980 17L980 0L2000 0L2000 17L2000 17L2000 35L2000 35L2000 52L2000 52L2000 70L2000 70L2000 87L2000 87L2000 104L2000 104L2000 122L2000 122L2000 139L2000 139L2000 157L2000 157L2000 174L2000 174L2000 191L2000 191L2000 209L2000 209L2000 226L2000 226L2000 243L2000 243L2000 261L2000 261L2000 278L2000 278L2000 296L2000 296L2000 313L2000 313L2000 330L2000 330L2000 348L2000 348L2000 365L2000 365L2000 383L2000 383L2000 400L2000 400Z" fill="#242a1f"></path><path d="M689 400L828 400L828 383L761 383L761 365L978 365L978 348L924 348L924 330L783 330L783 313L699 313L699 296L699 296L699 278L834 278L834 261L1100 261L1100 243L910 243L910 226L876 226L876 209L889 209L889 191L1173 191L1173 174L1118 174L1118 157L742 157L742 139L1088 139L1088 122L888 122L888 104L969 104L969 87L795 87L795 70L743 70L743 52L973 52L973 35L964 35L964 17L967 17L967 0L2000 0L2000 17L2000 17L2000 35L2000 35L2000 52L2000 52L2000 70L2000 70L2000 87L2000 87L2000 104L2000 104L2000 122L2000 122L2000 139L2000 139L2000 157L2000 157L2000 174L2000 174L2000 191L2000 191L2000 209L2000 209L2000 226L2000 226L2000 243L2000 243L2000 261L2000 261L2000 278L2000 278L2000 296L2000 296L2000 313L2000 313L2000 330L2000 330L2000 348L2000 348L2000 365L2000 365L2000 383L2000 383L2000 400L2000 400Z" fill="#2d3529"></path><path d="M918 400L973 400L973 383L1084 383L1084 365L980 365L980 348L1214 348L1214 330L874 330L874 313L855 313L855 296L854 296L854 278L1171 278L1171 261L993 261L993 243L943 243L943 226L1219 226L1219 209L1232 209L1232 191L891 191L891 174L1261 174L1261 157L1004 157L1004 139L1231 139L1231 122L785 122L785 104L796 104L796 87L817 87L817 70L881 70L881 52L1227 52L1227 35L973 35L973 17L1076 17L1076 0L2000 0L2000 17L2000 17L2000 35L2000 35L2000 52L2000 52L2000 70L2000 70L2000 87L2000 87L2000 104L2000 104L2000 122L2000 122L2000 139L2000 139L2000 157L2000 157L2000 174L2000 174L2000 191L2000 191L2000 209L2000 209L2000 226L2000 226L2000 243L2000 243L2000 261L2000 261L2000 278L2000 278L2000 296L2000 296L2000 313L2000 313L2000 330L2000 330L2000 348L2000 348L2000 365L2000 365L2000 383L2000 383L2000 400L2000 400Z" fill="#374133"></path><path d="M1375 400L1047 400L1047 383L1137 383L1137 365L1102 365L1102 348L1038 348L1038 330L1263 330L1263 313L1156 313L1156 296L933 296L933 278L1275 278L1275 261L1212 261L1212 243L1149 243L1149 226L1203 226L1203 209L1167 209L1167 191L963 191L963 174L1212 174L1212 157L1071 157L1071 139L948 139L948 122L1322 122L1322 104L1184 104L1184 87L1097 87L1097 70L1106 70L1106 52L1297 52L1297 35L1292 35L1292 17L1098 17L1098 0L2000 0L2000 17L2000 17L2000 35L2000 35L2000 52L2000 52L2000 70L2000 70L2000 87L2000 87L2000 104L2000 104L2000 122L2000 122L2000 139L2000 139L2000 157L2000 157L2000 174L2000 174L2000 191L2000 191L2000 209L2000 209L2000 226L2000 226L2000 243L2000 243L2000 261L2000 261L2000 278L2000 278L2000 296L2000 296L2000 313L2000 313L2000 330L2000 330L2000 348L2000 348L2000 365L2000 365L2000 383L2000 383L2000 400L2000 400Z" fill="#414d3d"></path><path d="M1302 400L1258 400L1258 383L1248 383L1248 365L1340 365L1340 348L1377 348L1377 330L1286 330L1286 313L1383 313L1383 296L1483 296L1483 278L1081 278L1081 261L1392 261L1392 243L1468 243L1468 226L1289 226L1289 209L1430 209L1430 191L1324 191L1324 174L1125 174L1125 157L1136 157L1136 139L1362 139L1362 122L1350 122L1350 104L1348 104L1348 87L1338 87L1338 70L1330 70L1330 52L1352 52L1352 35L1160 35L1160 17L1326 17L1326 0L2000 0L2000 17L2000 17L2000 35L2000 35L2000 52L2000 52L2000 70L2000 70L2000 87L2000 87L2000 104L2000 104L2000 122L2000 122L2000 139L2000 139L2000 157L2000 157L2000 174L2000 174L2000 191L2000 191L2000 209L2000 209L2000 226L2000 226L2000 243L2000 243L2000 261L2000 261L2000 278L2000 278L2000 296L2000 296L2000 313L2000 313L2000 330L2000 330L2000 348L2000 348L2000 365L2000 365L2000 383L2000 383L2000 400L2000 400Z" fill="#4b5947"></path><path d="M1518 400L1335 400L1335 383L1239 383L1239 365L1198 365L1198 348L1423 348L1423 330L1492 330L1492 313L1542 313L1542 296L1545 296L1545 278L1578 278L1578 261L1200 261L1200 243L1555 243L1555 226L1256 226L1256 209L1209 209L1209 191L1545 191L1545 174L1232 174L1232 157L1361 157L1361 139L1584 139L1584 122L1302 122L1302 104L1379 104L1379 87L1350 87L1350 70L1501 70L1501 52L1214 52L1214 35L1580 35L1580 17L1391 17L1391 0L2000 0L2000 17L2000 17L2000 35L2000 35L2000 52L2000 52L2000 70L2000 70L2000 87L2000 87L2000 104L2000 104L2000 122L2000 122L2000 139L2000 139L2000 157L2000 157L2000 174L2000 174L2000 191L2000 191L2000 209L2000 209L2000 226L2000 226L2000 243L2000 243L2000 261L2000 261L2000 278L2000 278L2000 296L2000 296L2000 313L2000 313L2000 330L2000 330L2000 348L2000 348L2000 365L2000 365L2000 383L2000 383L2000 400L2000 400Z" fill="#556652"></path><path d="M1465 400L1498 400L1498 383L1650 383L1650 365L1688 365L1688 348L1512 348L1512 330L1477 330L1477 313L1597 313L1597 296L1459 296L1459 278L1624 278L1624 261L1669 261L1669 243L1543 243L1543 226L1655 226L1655 209L1680 209L1680 191L1520 191L1520 174L1461 174L1461 157L1487 157L1487 139L1605 139L1605 122L1621 122L1621 104L1480 104L1480 87L1683 87L1683 70L1636 70L1636 52L1633 52L1633 35L1400 35L1400 17L1350 17L1350 0L2000 0L2000 17L2000 17L2000 35L2000 35L2000 52L2000 52L2000 70L2000 70L2000 87L2000 87L2000 104L2000 104L2000 122L2000 122L2000 139L2000 139L2000 157L2000 157L2000 174L2000 174L2000 191L2000 191L2000 209L2000 209L2000 226L2000 226L2000 243L2000 243L2000 261L2000 261L2000 278L2000 278L2000 296L2000 296L2000 313L2000 313L2000 330L2000 330L2000 348L2000 348L2000 365L2000 365L2000 383L2000 383L2000 400L2000 400Z" fill="#60735e"></path><path d="M1661 400L1760 400L1760 383L1693 383L1693 365L1637 365L1637 348L1523 348L1523 330L1567 330L1567 313L1789 313L1789 296L1788 296L1788 278L1469 278L1469 261L1580 261L1580 243L1556 243L1556 226L1723 226L1723 209L1486 209L1486 191L1784 191L1784 174L1706 174L1706 157L1773 157L1773 139L1731 139L1731 122L1766 122L1766 104L1711 104L1711 87L1548 87L1548 70L1697 70L1697 52L1524 52L1524 35L1660 35L1660 17L1720 17L1720 0L2000 0L2000 17L2000 17L2000 35L2000 35L2000 52L2000 52L2000 70L2000 70L2000 87L2000 87L2000 104L2000 104L2000 122L2000 122L2000 139L2000 139L2000 157L2000 157L2000 174L2000 174L2000 191L2000 191L2000 209L2000 209L2000 226L2000 226L2000 243L2000 243L2000 261L2000 261L2000 278L2000 278L2000 296L2000 296L2000 313L2000 313L2000 330L2000 330L2000 348L2000 348L2000 365L2000 365L2000 383L2000 383L2000 400L2000 400Z" fill="#6a806a"></path><path d="M1626 400L1608 400L1608 383L1836 383L1836 365L1797 365L1797 348L1744 348L1744 330L1720 330L1720 313L1735 313L1735 296L1692 296L1692 278L1607 278L1607 261L1829 261L1829 243L1832 243L1832 226L1877 226L1877 209L1780 209L1780 191L1757 191L1757 174L1611 174L1611 157L1682 157L1682 139L1846 139L1846 122L1840 122L1840 104L1796 104L1796 87L1718 87L1718 70L1862 70L1862 52L1748 52L1748 35L1740 35L1740 17L1817 17L1817 0L2000 0L2000 17L2000 17L2000 35L2000 35L2000 52L2000 52L2000 70L2000 70L2000 87L2000 87L2000 104L2000 104L2000 122L2000 122L2000 139L2000 139L2000 157L2000 157L2000 174L2000 174L2000 191L2000 191L2000 209L2000 209L2000 226L2000 226L2000 243L2000 243L2000 261L2000 261L2000 278L2000 278L2000 296L2000 296L2000 313L2000 313L2000 330L2000 330L2000 348L2000 348L2000 365L2000 365L2000 383L2000 383L2000 400L2000 400Z" fill="#748e76"></path><path d="M1752 400L1783 400L1783 383L1758 383L1758 365L1818 365L1818 348L1789 348L1789 330L1821 330L1821 313L1861 313L1861 296L1955 296L1955 278L1932 278L1932 261L1875 261L1875 243L1921 243L1921 226L1937 226L1937 209L1841 209L1841 191L1964 191L1964 174L1847 174L1847 157L1940 157L1940 139L1806 139L1806 122L1912 122L1912 104L1904 104L1904 87L1905 87L1905 70L1853 70L1853 52L1844 52L1844 35L1803 35L1803 17L1982 17L1982 0L2000 0L2000 17L2000 17L2000 35L2000 35L2000 52L2000 52L2000 70L2000 70L2000 87L2000 87L2000 104L2000 104L2000 122L2000 122L2000 139L2000 139L2000 157L2000 157L2000 174L2000 174L2000 191L2000 191L2000 209L2000 209L2000 226L2000 226L2000 243L2000 243L2000 261L2000 261L2000 278L2000 278L2000 296L2000 296L2000 313L2000 313L2000 330L2000 330L2000 348L2000 348L2000 365L2000 365L2000 383L2000 383L2000 400L2000 400Z" fill="#7f9c82"></path></svg>