<svg version="1.1" id="Layer_1" xmlns="http://www.w3.org/2000/svg" xmlns:xlink="http://www.w3.org/1999/xlink" x="0px" y="0px"
	 width="100%" viewBox="0 0 736 528" enable-background="new 0 0 736 528" xml:space="preserve">
<path fill="#765aec" opacity="1.000000" stroke="none" 
	d="
M407.187408,279.120483 
	C376.837646,329.019806 346.662872,378.599518 316.720093,427.798035 
	C313.839172,427.592072 313.477478,425.931549 312.770813,424.693909 
	C292.538757,389.260345 272.360443,353.795990 252.059097,318.402191 
	C250.021423,314.849670 249.768463,311.960846 251.946381,308.275177 
	C271.688568,274.865448 291.301544,241.378922 310.810211,207.832230 
	C312.480896,204.959305 314.336365,203.933121 317.551697,203.989639 
	C341.687775,204.413879 365.828796,204.586319 389.961945,205.122101 
	C394.675049,205.226746 397.453003,203.919724 399.944611,199.689651 
	C413.636536,176.444733 427.688690,153.412048 441.599976,130.296173 
	C442.186615,129.321411 442.603088,128.244247 443.207184,126.989738 
	C442.580353,126.532249 442.109528,125.900749 441.575531,125.841850 
	C432.786530,124.872253 423.966156,125.048775 415.149017,125.263390 
	C412.937866,125.317215 412.206268,127.167862 411.293427,128.752823 
	C399.905579,148.525345 388.415375,168.240112 377.216187,188.118866 
	C375.277557,191.559921 373.164215,192.658249 369.330994,192.485992 
	C355.861237,191.880737 342.374298,191.668106 328.896393,191.229355 
	C323.657623,191.058792 322.831696,189.770859 325.337250,185.146149 
	C335.650543,166.109726 346.067993,147.129593 356.485718,128.149948 
	C365.138824,112.385269 373.953979,96.708122 382.448486,80.858833 
	C384.420410,77.179573 386.625000,75.565102 390.954498,75.594421 
	C416.777252,75.769341 442.615601,76.155083 468.421417,75.458427 
	C486.741852,74.963852 505.057892,75.243050 523.369568,74.756187 
	C525.327026,74.704140 527.373535,74.325523 529.248596,75.359993 
	C530.312622,77.289421 528.789612,78.514137 527.984375,79.850182 
	C494.195343,135.914520 460.347748,191.943604 426.651154,248.063400 
	C424.380737,251.844635 421.839996,253.287033 417.459930,253.183716 
	C394.326935,252.638153 371.215424,251.614426 348.117767,250.308884 
	C343.522858,250.049164 340.365784,250.925858 337.903656,255.303268 
	C326.554993,275.479828 314.950470,295.513367 303.307312,315.522278 
	C301.772827,318.159332 301.651398,320.124084 303.386932,322.731934 
	C306.953522,328.091248 309.690826,334.000946 314.029419,339.196808 
	C316.703857,337.327026 317.811066,334.665466 319.166260,332.284088 
	C331.604614,310.426910 344.030212,288.561890 356.294556,266.606964 
	C357.967468,263.612274 359.964966,262.073700 363.334900,262.179840 
	C379.811340,262.698853 396.288422,263.195465 412.764984,263.710266 
	C413.583344,263.735809 414.441437,263.744965 415.235809,264.937012 
	C413.961975,270.110413 409.765472,273.976257 407.187408,279.120483 
z"/>
<path fill="#ffffff" opacity="1.000000" stroke="none" 
	d="
M346.001129,477.695862 
	C343.162201,479.335724 342.561035,477.028046 341.736389,475.588745 
	C334.863464,463.592804 328.127808,451.517853 321.202484,439.552521 
	C319.535339,436.672058 320.641754,434.557343 322.109039,432.206970 
	C333.665314,413.695618 345.205017,395.173859 356.708008,376.629333 
	C377.605408,342.939758 398.477509,309.234497 419.353424,275.531616 
	C439.791138,242.536346 460.209991,209.529404 480.656525,176.539612 
	C501.015381,143.691284 521.430725,110.877861 541.705994,77.978081 
	C543.242065,75.485603 544.945740,74.666245 547.730408,74.628632 
	C578.493164,74.213028 609.251648,73.626045 640.020325,73.463150 
	C652.601196,73.396545 665.208252,73.816788 677.813721,72.976830 
	C684.500610,72.531242 691.297791,73.461143 697.678345,72.776733 
	C698.755005,74.798164 697.869507,75.703278 697.203308,76.627403 
	C686.098511,92.031029 674.941650,107.397377 663.907654,122.851456 
	C661.938965,125.608711 659.576172,126.529053 656.279724,126.468262 
	C636.292969,126.099724 616.302979,126.494087 596.308838,125.644203 
	C589.545532,125.356720 582.692993,125.405327 575.884888,125.250725 
	C572.866699,125.182182 570.915466,126.283104 569.348511,128.843735 
	C554.135986,153.703613 538.852295,178.519928 523.590637,203.349762 
	C522.979980,204.343277 522.321899,205.329117 522.899902,207.467468 
	C550.671936,209.888351 578.923889,207.626022 606.749756,209.738297 
	C607.766174,212.296478 606.167358,213.393600 605.290039,214.695099 
	C596.259949,228.092041 587.109863,241.409180 578.200073,254.885315 
	C576.180542,257.939819 573.600647,258.287506 570.475342,258.158142 
	C545.522339,257.125092 520.563171,256.223999 495.618561,255.020004 
	C491.025726,254.798340 488.439575,256.281219 485.962067,260.171967 
	C460.732452,299.793518 435.319061,339.298248 409.898224,378.797760 
	C388.718475,411.707306 367.460052,444.566223 346.001129,477.695862 
z"/>
<path fill="#ffffff" opacity="1.000000" stroke="none" 
	d="
M190.338806,120.674149 
	C207.922256,152.571091 225.345459,184.133636 242.717102,215.602783 
	C245.950607,214.645004 246.591354,212.380417 247.552231,210.568771 
	C264.478088,178.656723 281.333954,146.707535 298.220490,114.774612 
	C304.369263,103.147041 310.637604,91.581757 316.679657,79.899254 
	C318.421783,76.530846 320.777557,75.818993 324.383362,75.994812 
	C333.456818,76.437202 342.545746,76.683662 351.644287,76.078430 
	C358.863861,75.598183 366.054504,77.693085 373.331146,75.832748 
	C373.655304,76.269814 373.979462,76.706879 374.303589,77.143944 
	C331.985535,153.761536 289.667480,230.379135 247.349411,306.996735 
	C246.774857,306.970978 246.200287,306.945221 245.625717,306.919464 
	C201.736679,230.241913 157.847641,153.564362 114.262314,77.417427 
	C115.418716,75.486488 116.285568,75.595612 117.103355,75.593071 
	C131.419662,75.548630 145.737488,76.499939 160.049332,75.653641 
	C164.058960,75.416542 166.426331,76.926140 168.337402,80.513771 
	C175.455124,93.875740 182.873199,107.077713 190.338806,120.674149 
z"/>
</svg>